<svg viewBox="0 0 40 46" xmlns="http://www.w3.org/2000/svg"><path fill-rule="evenodd" clip-rule="evenodd" d="M31.1407 24.2464C35.4415 24.2464 38.9259 27.7187 38.9259 31.9997V38.1577C38.9259 42.4387 35.4415 45.9095 31.1407 45.9095H19.6919C18.0547 45.9121 16.4585 45.3977 15.13 44.4395C13.8015 43.4813 12.8084 42.128 12.2919 40.572L5.47111 43.976C4.57609 44.4239 3.54049 44.499 2.59039 44.1849C1.64029 43.8707 0.852862 43.1928 0.4 42.2992C0.136902 41.7764 -9.94756e-05 41.199 5.41913e-08 40.6135V29.5706C5.41913e-08 27.4931 1.69185 25.809 3.77778 25.809C4.37037 25.809 4.95556 25.947 5.48444 26.2141L12.2756 29.6373C12.7838 28.0689 13.7755 26.7022 15.1081 25.7338C16.4407 24.7654 18.0455 24.2452 19.6919 24.2479L31.1407 24.2464ZM31.0919 28.2381H19.8074C18.7889 28.2347 17.8099 28.6326 17.0815 29.3457C16.3532 30.0588 15.9339 31.0301 15.9141 32.0501V38.042C15.9171 39.0618 16.3201 40.0397 17.0362 40.7647C17.7523 41.4897 18.7241 41.9038 19.7422 41.9179H31.0267C32.0447 41.9208 33.0231 41.523 33.7511 40.8102C34.4791 40.0974 34.8983 39.1267 34.9185 38.1073V32.1139C34.9155 31.0943 34.5127 30.1167 33.797 29.3917C33.0812 28.6668 32.1097 28.2524 31.0919 28.2381ZM5.03704 30.6419C4.76791 30.6415 4.50933 30.7467 4.31682 30.9351C4.12431 31.1235 4.01322 31.38 4.00741 31.6495V38.591C4.00883 38.7654 4.05423 38.9366 4.13941 39.0886C4.22458 39.2407 4.34676 39.3687 4.49459 39.4608C4.64241 39.5529 4.81108 39.6061 4.98492 39.6154C5.15875 39.6247 5.33212 39.5898 5.48889 39.514L5.50519 39.5051L11.9067 36.2539V33.9539L5.49926 30.7517C5.35576 30.6797 5.19752 30.6422 5.03704 30.6419ZM14.5407 1.44676C16.4103 1.44387 18.247 1.93915 19.8624 2.8818C21.4778 3.82445 22.8138 5.18053 23.7333 6.81095C25.4071 5.26249 27.603 4.40442 29.8815 4.40857C34.877 4.40857 38.9259 8.44173 38.9259 13.4157C38.9259 18.3896 34.877 22.4228 29.8815 22.4228C28.4582 22.4249 27.0546 22.0908 25.7845 21.4475C24.5144 20.8042 23.4137 19.8699 22.5719 18.7205C21.5809 19.8835 20.3494 20.8169 18.9627 21.4561C17.5761 22.0954 16.0672 22.4252 14.5407 22.4228C8.72296 22.4228 4.00741 17.7263 4.00741 11.9333C4.00741 6.14024 8.72296 1.44676 14.5407 1.44676ZM14.5407 5.66392C11.0622 5.66392 8.24444 8.4714 8.24444 11.9348C8.24444 15.3981 11.0622 18.2056 14.5407 18.2056C18.0178 18.2056 20.837 15.3981 20.837 11.9348C20.837 8.4714 18.0178 5.66392 14.5407 5.66392ZM29.8815 8.62869C29.2519 8.62694 28.6282 8.7494 28.0459 8.98909C27.4635 9.22879 26.9341 9.58101 26.4876 10.0257C26.0412 10.4703 25.6866 10.9987 25.4441 11.5806C25.2016 12.1625 25.0758 12.7866 25.0741 13.4171C25.0758 14.0477 25.2016 14.6718 25.4441 15.2537C25.6866 15.8356 26.0412 16.364 26.4876 16.8086C26.9341 17.2533 27.4635 17.6055 28.0459 17.8452C28.6282 18.0849 29.2519 18.2074 29.8815 18.2056C30.5112 18.2075 31.1351 18.0852 31.7176 17.8456C32.3001 17.606 32.8297 17.2538 33.2763 16.8092C33.7228 16.3645 34.0776 15.8361 34.3202 15.254C34.5628 14.672 34.6886 14.0479 34.6904 13.4171C34.6886 12.7864 34.5628 12.1623 34.3202 11.5802C34.0776 10.9982 33.7228 10.4698 33.2763 10.0251C32.8297 9.58047 32.3001 9.22827 31.7176 8.98867C31.1351 8.74906 30.5112 8.62674 29.8815 8.62869Z" fill="#FF3D13"/></svg>