<svg xmlns="http://www.w3.org/2000/svg" viewBox="0 0 760 220" role="img" aria-labelledby="title desc">
  <title id="title">OmniSaver logo v2</title>
  <desc id="desc">A simplified OmniSaver wordmark with a clean archive icon.</desc>
  <defs>
    <linearGradient id="bg" x1="22" y1="20" x2="166" y2="170" gradientUnits="userSpaceOnUse">
      <stop offset="0" stop-color="#0f766e"/>
      <stop offset="0.52" stop-color="#0f5f8a"/>
      <stop offset="1" stop-color="#1d4ed8"/>
    </linearGradient>
    <linearGradient id="tray" x1="56" y1="92" x2="132" y2="130" gradientUnits="userSpaceOnUse">
      <stop offset="0" stop-color="#ffffff"/>
      <stop offset="1" stop-color="#dbeafe"/>
    </linearGradient>
  </defs>

  <rect x="20" y="20" width="148" height="148" rx="34" fill="url(#bg)"/>

  <circle cx="94" cy="78" r="32" fill="none" stroke="#ffffff" stroke-opacity="0.2" stroke-width="9"/>
  <path d="M60 76c6-13 19-22 35-22 12 0 23 4 31 13" fill="none" stroke="#ffffff" stroke-opacity="0.82" stroke-linecap="round" stroke-width="9"/>
  <circle cx="63" cy="73" r="5.5" fill="#f8fafc"/>

  <path d="M94 58v34" stroke="#f8fafc" stroke-linecap="round" stroke-width="10"/>
  <path d="M77 82l17 17 17-17" fill="none" stroke="#f8fafc" stroke-linecap="round" stroke-linejoin="round" stroke-width="10"/>

  <path d="M56 111c0-4.971 4.029-9 9-9h14.697a12.28 12.28 0 0 0 8.682-3.592L94 92.78l5.621 5.628A12.28 12.28 0 0 0 108.303 102H123c4.971 0 9 4.029 9 9v14c0 6.627-5.373 12-12 12H68c-6.627 0-12-5.373-12-12z" fill="url(#tray)"/>

  <g fill="#0f172a">
    <text x="214" y="102" font-size="64" font-weight="700" font-family="ui-sans-serif, system-ui, -apple-system, BlinkMacSystemFont, 'Segoe UI', sans-serif" letter-spacing="-1.5">OmniSaver</text>
    <text x="217" y="136" font-size="21" font-weight="600" font-family="ui-sans-serif, system-ui, -apple-system, BlinkMacSystemFont, 'Segoe UI', sans-serif" fill="#0f766e" letter-spacing="3.2">MULTI-PLATFORM ARCHIVE</text>
    <path d="M216 154h282" stroke="#94a3b8" stroke-width="4" stroke-linecap="round" opacity="0.55"/>
  </g>
</svg>
