<svg xmlns="http://www.w3.org/2000/svg" viewBox="0 0 720 220" role="img" aria-labelledby="title desc">
  <title id="title">OmniSaver logo</title>
  <desc id="desc">OmniSaver wordmark with a rounded square archive icon and a modern text lockup.</desc>
  <defs>
    <linearGradient id="bg" x1="24" y1="20" x2="164" y2="168" gradientUnits="userSpaceOnUse">
      <stop offset="0" stop-color="#0f766e"/>
      <stop offset="0.55" stop-color="#155e75"/>
      <stop offset="1" stop-color="#1d4ed8"/>
    </linearGradient>
    <linearGradient id="tray" x1="58" y1="76" x2="130" y2="132" gradientUnits="userSpaceOnUse">
      <stop offset="0" stop-color="#f8fafc"/>
      <stop offset="1" stop-color="#dbeafe"/>
    </linearGradient>
    <filter id="shadow" x="-20%" y="-20%" width="140%" height="160%">
      <feDropShadow dx="0" dy="8" stdDeviation="8" flood-color="#0f172a" flood-opacity="0.18"/>
    </filter>
  </defs>

  <rect x="20" y="20" width="148" height="148" rx="34" fill="url(#bg)"/>

  <g opacity="0.15" fill="#ffffff">
    <circle cx="49" cy="49" r="6"/>
    <circle cx="141" cy="58" r="5"/>
  </g>

  <g filter="url(#shadow)">
    <path d="M51 82c0-6.627 5.373-12 12-12h62c6.627 0 12 5.373 12 12v8c0 2.761-2.239 5-5 5h-16.763c-2.652 0-5.196 1.054-7.067 2.93l-4.078 4.091A10 10 0 0 1 97 105h-2a10 10 0 0 1-7.092-2.979l-4.078-4.091A10 10 0 0 0 76.763 95H56c-2.761 0-5-2.239-5-5z" fill="url(#tray)"/>
    <path d="M56 95h20.763a10 10 0 0 1 7.067 2.93l4.078 4.091A10 10 0 0 0 95 105h2a10 10 0 0 0 7.092-2.979l4.078-4.091A10 10 0 0 1 115.237 95H136c2.761 0 5 2.239 5 5v12c0 7.18-5.82 13-13 13H64c-7.18 0-13-5.82-13-13v-12c0-2.761 2.239-5 5-5z" fill="#f8fafc"/>
  </g>

  <g filter="url(#shadow)">
    <rect x="61" y="44" width="22" height="34" rx="6" fill="#f97316" transform="rotate(-16 72 61)"/>
    <rect x="83" y="34" width="22" height="36" rx="6" fill="#facc15"/>
    <rect x="107" y="44" width="22" height="34" rx="6" fill="#22c55e" transform="rotate(16 118 61)"/>
  </g>

  <g fill="#0f172a" opacity="0.2">
    <rect x="66" y="53" width="10" height="3" rx="1.5" transform="rotate(-16 71 54.5)"/>
    <rect x="65" y="59" width="12" height="3" rx="1.5" transform="rotate(-16 71 60.5)"/>
    <rect x="89" y="43" width="10" height="3" rx="1.5"/>
    <rect x="88" y="49" width="12" height="3" rx="1.5"/>
    <rect x="112" y="54" width="10" height="3" rx="1.5" transform="rotate(16 117 55.5)"/>
    <rect x="111" y="60" width="12" height="3" rx="1.5" transform="rotate(16 117 61.5)"/>
  </g>

  <g fill="#0f172a">
    <path d="M224.785 143V73.18h23.672c6.294 0 11.787 1.276 16.477 3.828 4.691 2.552 8.316 6.158 10.877 10.818 2.561 4.66 3.841 10.127 3.841 16.401s-1.28 11.742-3.841 16.402c-2.561 4.66-6.186 8.271-10.877 10.831-4.69 2.56-10.183 3.84-16.477 3.84zm14.414-11.661h8.508c3.518 0 6.559-.646 9.123-1.938 2.565-1.292 4.553-3.224 5.965-5.795 1.413-2.571 2.12-5.997 2.12-10.278 0-4.262-.707-7.676-2.12-10.241-1.412-2.565-3.4-4.49-5.965-5.773-2.564-1.283-5.605-1.925-9.123-1.925h-8.508z"/>
    <path d="M320.824 144.092c-5.021 0-9.363-1.03-13.025-3.089-3.662-2.059-6.49-4.932-8.483-8.618-1.993-3.686-2.989-7.954-2.989-12.804 0-4.813 1.005-9.069 3.014-12.767 2.009-3.698 4.788-6.588 8.336-8.668 3.548-2.08 7.602-3.12 12.163-3.12 3.066 0 5.962.492 8.69 1.474 2.728.983 5.121 2.419 7.181 4.309 2.059 1.89 3.679 4.201 4.859 6.931 1.179 2.731 1.769 5.841 1.769 9.331v4.344h-39.846v-8.962h26.272c0-2.079-.453-3.922-1.36-5.529-.907-1.607-2.171-2.869-3.793-3.785-1.622-.917-3.508-1.375-5.659-1.375-2.243 0-4.23.52-5.959 1.559-1.729 1.04-3.075 2.408-4.039 4.105-.964 1.696-1.455 3.541-1.472 5.534v8.146c0 2.573.472 4.797 1.415 6.674.943 1.878 2.271 3.326 3.985 4.345 1.714 1.018 3.743 1.527 6.086 1.527 1.557 0 2.981-.219 4.272-.656 1.292-.438 2.41-1.095 3.356-1.971.946-.876 1.665-1.957 2.157-3.242l13.234.879c-.674 3.187-2.051 5.969-4.132 8.347-2.08 2.378-4.764 4.224-8.052 5.537-3.288 1.313-7.066 1.969-11.334 1.969z"/>
    <path d="M379.645 144.129c-4.46 0-8.454-.995-11.981-2.985-3.527-1.99-6.31-4.826-8.349-8.508-2.038-3.682-3.058-8.029-3.058-13.042 0-5.05 1.029-9.412 3.088-13.087 2.059-3.675 4.863-6.505 8.412-8.49 3.549-1.985 7.566-2.977 12.052-2.977 3.88 0 7.288.703 10.224 2.11 2.936 1.407 5.217 3.345 6.842 5.814h.62V78.543h14.123V143h-13.952v-7.759h-.791c-1.684 2.567-4.002 4.58-6.953 6.04-2.951 1.46-6.377 2.19-10.277 2.19zm4.48-11.271c2.634 0 4.901-.724 6.803-2.172 1.902-1.448 3.371-3.458 4.405-6.03 1.034-2.572 1.552-5.559 1.552-8.962s-.514-6.378-1.54-8.924c-1.026-2.546-2.493-4.523-4.398-5.931-1.905-1.409-4.178-2.113-6.822-2.113-2.691 0-4.991.717-6.901 2.15-1.91 1.433-3.372 3.425-4.387 5.975-1.014 2.551-1.521 5.5-1.521 8.848 0 3.384.511 6.368 1.533 8.949 1.023 2.581 2.488 4.599 4.397 6.055 1.91 1.456 4.203 2.185 6.879 2.185z"/>
    <path d="M451.633 143.968c-4.604 0-8.722-.777-12.354-2.33-3.632-1.553-6.511-3.828-8.638-6.824-2.127-2.996-3.222-6.66-3.284-10.993h13.926c.091 2.455 1.121 4.437 3.09 5.948 1.969 1.511 4.575 2.266 7.818 2.266 3.152 0 5.667-.675 7.545-2.025 1.878-1.35 2.818-3.131 2.818-5.344 0-1.864-.784-3.389-2.353-4.575-1.569-1.186-4.152-2.148-7.748-2.886l-7.904-1.584c-5.653-1.131-9.84-2.949-12.562-5.456-2.722-2.507-4.083-5.79-4.083-9.85 0-3.314.947-6.208 2.839-8.68 1.893-2.473 4.523-4.4 7.89-5.781 3.367-1.381 7.274-2.072 11.723-2.072 6.747 0 12.059 1.435 15.938 4.305 3.879 2.87 6.128 6.779 6.746 11.726h-13.258c-.236-2.474-1.182-4.406-2.837-5.797-1.655-1.391-3.877-2.086-6.666-2.086-2.972 0-5.262.625-6.869 1.875-1.607 1.25-2.41 2.946-2.41 5.089 0 1.809.759 3.293 2.278 4.453 1.518 1.16 3.895 2.038 7.129 2.636l7.548 1.492c5.924 1.17 10.278 3.074 13.062 5.713 2.785 2.639 4.178 6.017 4.178 10.135 0 3.277-.995 6.163-2.985 8.657-1.991 2.494-4.766 4.437-8.328 5.83-3.561 1.393-7.681 2.09-12.36 2.09z"/>
    <path d="M521.262 95.748v10.606H492.92V95.748zm-21.908-11.661h14.123v41.32c0 1.139.175 2.025.525 2.656.35.632.835 1.074 1.456 1.326.621.252 1.335.378 2.144.378.564 0 1.128-.047 1.691-.143.564-.096.996-.181 1.297-.255l2.224 10.506c-.709.219-1.702.471-2.979.757-1.277.285-2.826.462-4.647.529-3.379.134-6.341-.319-8.886-1.359-2.545-1.039-4.524-2.654-5.938-4.844-1.413-2.19-2.111-4.949-2.093-8.277z"/>
    <path d="M559.766 144.092c-5.021 0-9.363-1.03-13.025-3.089-3.662-2.059-6.49-4.932-8.483-8.618-1.993-3.686-2.989-7.954-2.989-12.804 0-4.813 1.005-9.069 3.014-12.767 2.009-3.698 4.788-6.588 8.336-8.668 3.548-2.08 7.602-3.12 12.163-3.12 3.066 0 5.962.492 8.69 1.474 2.728.983 5.121 2.419 7.181 4.309 2.059 1.89 3.679 4.201 4.859 6.931 1.179 2.731 1.769 5.841 1.769 9.331v4.344H541.435v-8.962h26.272c0-2.079-.453-3.922-1.36-5.529-.907-1.607-2.171-2.869-3.793-3.785-1.622-.917-3.508-1.375-5.659-1.375-2.243 0-4.23.52-5.959 1.559-1.729 1.04-3.075 2.408-4.039 4.105-.964 1.696-1.455 3.541-1.472 5.534v8.146c0 2.573.472 4.797 1.415 6.674.943 1.878 2.271 3.326 3.985 4.345 1.714 1.018 3.743 1.527 6.086 1.527 1.557 0 2.981-.219 4.272-.656 1.292-.438 2.41-1.095 3.356-1.971.946-.876 1.665-1.957 2.157-3.242l13.234.879c-.674 3.187-2.051 5.969-4.132 8.347-2.08 2.378-4.764 4.224-8.052 5.537-3.288 1.313-7.066 1.969-11.334 1.969z"/>
    <path d="M596.828 143V95.748h13.702v8.23h.495c.862-2.929 2.309-5.141 4.341-6.636 2.032-1.495 4.372-2.243 7.021-2.243.657 0 1.367.041 2.128.123.761.082 1.43.194 2.006.337v12.542a18.36 18.36 0 0 0-2.566-.476 25.497 25.497 0 0 0-3.037-.192c-1.929 0-3.654.421-5.174 1.264-1.52.842-2.719 2.018-3.596 3.526-.877 1.509-1.315 3.265-1.315 5.268V143z"/>
    <path d="M643.699 143V95.748h13.702v7.956h.531c.998-2.627 2.67-4.709 5.015-6.247 2.345-1.538 5.191-2.307 8.539-2.307 3.381 0 6.237.777 8.57 2.331 2.333 1.554 3.89 3.628 4.671 6.223h.475c.99-2.559 2.784-4.626 5.381-6.203 2.598-1.576 5.668-2.364 9.211-2.364 4.516 0 8.198 1.438 11.047 4.314 2.849 2.876 4.273 6.941 4.273 12.196V143h-14.173v-28.549c0-2.567-.68-4.493-2.04-5.777-1.36-1.284-3.086-1.926-5.177-1.926-2.375 0-4.211.759-5.509 2.278-1.298 1.518-1.947 3.526-1.947 6.023V143h-13.781v-28.849c0-2.363-.651-4.244-1.953-5.643-1.302-1.4-3.021-2.1-5.156-2.1-1.446 0-2.759.367-3.94 1.101-1.181.734-2.124 1.763-2.829 3.087-.705 1.324-1.057 2.875-1.057 4.652V143z"/>
    <path d="M223.736 177.5h488.297" stroke="#94a3b8" stroke-width="4" stroke-linecap="round" opacity="0.6"/>
    <text x="223" y="67" font-size="24" font-family="ui-sans-serif, system-ui, -apple-system, BlinkMacSystemFont, 'Segoe UI', sans-serif" fill="#0f766e" letter-spacing="4">MULTI-PLATFORM ARCHIVE</text>
  </g>
</svg>
