<svg viewBox="0 0 24 24" fill="#E60023" xmlns="http://www.w3.org/2000/svg"><path d="M12 2C6.477 2 2 6.477 2 12c0 4.239 2.633 7.862 6.35 9.318-.088-.792-.167-2.008.035-2.873.183-.784 1.18-4.993 1.18-4.993s-.301-.603-.301-1.495c0-1.4.812-2.446 1.823-2.446.859 0 1.273.645 1.273 1.418 0 .864-.55 2.156-.834 3.354-.237 1.003.503 1.821 1.491 1.821 1.789 0 3.166-1.887 3.166-4.611 0-2.411-1.733-4.098-4.206-4.098-2.866 0-4.548 2.149-4.548 4.371 0 .866.333 1.796.75 2.301a.303.303 0 0 1 .07.289c-.076.318-.246 1.003-.279 1.144-.044.184-.145.223-.335.134-1.251-.583-2.034-2.414-2.034-3.886 0-3.161 2.297-6.063 6.622-6.063 3.477 0 6.18 2.478 6.18 5.79 0 3.454-2.177 6.235-5.2 6.235-1.015 0-1.97-.527-2.296-1.149l-.624 2.379c-.225.865-.834 1.949-1.243 2.61.936.289 1.93.446 2.96.446 5.523 0 10-4.477 10-10S17.523 2 12 2z"/></svg>