<svg viewBox="0 0 216 216" xmlns="http://www.w3.org/2000/svg" xmlns:xlink="http://www.w3.org/1999/xlink"><defs><radialGradient id="view-reddit-grad-1" cx="169.75" cy="92.19" r="50.98" fx="169.75" fy="92.19" gradientTransform="matrix(1 0 0 .87 0 11.64)" gradientUnits="userSpaceOnUse"><stop offset="0" stop-color="#feffff"/><stop offset=".4" stop-color="#feffff"/><stop offset=".51" stop-color="#f9fcfc"/><stop offset=".62" stop-color="#edf3f5"/><stop offset=".7" stop-color="#dee9ec"/><stop offset=".72" stop-color="#d8e4e8"/><stop offset=".76" stop-color="#ccd8df"/><stop offset=".8" stop-color="#c8d5dd"/><stop offset=".83" stop-color="#ccd6de"/><stop offset=".85" stop-color="#d8dbe2"/><stop offset=".88" stop-color="#ede3e9"/><stop offset=".9" stop-color="#ffebef"/></radialGradient><radialGradient xlink:href="#view-reddit-grad-1" id="view-reddit-grad-2" cx="47.31" r="50.98" fx="47.31"/><radialGradient xlink:href="#view-reddit-grad-1" id="view-reddit-grad-3" cx="109.61" cy="85.59" r="153.78" fx="109.61" fy="85.59" gradientTransform="matrix(1 0 0 .7 0 25.56)"/><radialGradient id="view-reddit-grad-4" cx="-6.01" cy="64.68" r="12.85" fx="-6.01" fy="64.68" gradientTransform="matrix(1.07 0 0 1.55 81.08 27.26)" gradientUnits="userSpaceOnUse"><stop offset="0" stop-color="#f60"/><stop offset=".5" stop-color="#ff4500"/><stop offset=".7" stop-color="#fc4301"/><stop offset=".82" stop-color="#f43f07"/><stop offset=".92" stop-color="#e53812"/><stop offset="1" stop-color="#d4301f"/></radialGradient><radialGradient xlink:href="#view-reddit-grad-4" id="view-reddit-grad-5" cx="-73.55" cy="64.68" r="12.85" fx="-73.55" fy="64.68" gradientTransform="matrix(-1.07 0 0 1.55 62.87 27.26)"/><radialGradient id="view-reddit-grad-6" cx="107.93" cy="166.96" r="45.3" fx="107.93" fy="166.96" gradientTransform="matrix(1 0 0 .66 0 57.4)" gradientUnits="userSpaceOnUse"><stop offset="0" stop-color="#172e35"/><stop offset=".29" stop-color="#172e35"/><stop offset=".34" stop-color="#18313c"/><stop offset=".43" stop-color="#1c3b4d"/><stop offset=".54" stop-color="#234c68"/><stop offset=".67" stop-color="#2c648c"/><stop offset=".81" stop-color="#3882b9"/><stop offset=".95" stop-color="#46a5ed"/><stop offset="1" stop-color="#4bb3ff"/></radialGradient></defs><circle cx="108" cy="108" r="108" fill="#ff4500"/><path d="M169.75 92.19c0-9.14-7.44-16.58-16.58-16.58-4.14 0-7.92 1.54-10.88 4.06-11.7-8.19-27.63-13.46-45.18-14.13l9.63-30.33 26.28 6.12c.36 6.3 5.63 11.25 12.06 11.25 6.66 0 12.06-5.4 12.06-12.06s-5.4-12.06-12.06-12.06c-5.13 0-9.5 3.2-11.21 7.74l-28.8-6.75c-1.12-.27-2.25.32-2.61 1.35l-10.8 34.02c-17.87.27-34.11 5.58-46.08 13.95-2.97-2.52-6.84-4.05-11.07-4.05-9.14 0-16.58 7.44-16.58 16.58 0 6.12 3.33 11.43 8.28 14.31-.18 1.44-.27 2.88-.27 4.41 0 22.86 26.46 41.4 59.04 41.4s59.04-18.54 59.04-41.4c0-1.53-.09-2.97-.27-4.41 4.95-2.88 8.28-8.19 8.28-14.31z" fill="#fff"/><circle cx="75.6" cy="108" r="13.5" fill="#ff4500"/><circle cx="140.4" cy="108" r="13.5" fill="#ff4500"/><path d="M141.3 140.4c-8.1 8.1-20.7 13.5-33.3 13.5s-25.2-5.4-33.3-13.5c-1.17-1.17-1.17-3.06 0-4.23 1.17-1.17 3.06-1.17 4.23 0 6.3 6.3 16.2 10.8 29.1 10.8s22.8-4.5 29.1-10.8c1.17-1.17 3.06-1.17 4.23 0 1.17 1.17 1.17 3.06 0 4.23z" fill="#ff4500"/></svg>